<svg width="17" height="16" viewBox="0 0 17 16" fill="none" xmlns="http://www.w3.org/2000/svg">
<g opacity="0.4">
<circle cx="8.75" cy="8" r="8" fill="#020118"/>
<path fill-rule="evenodd" clip-rule="evenodd" d="M8.95037 3.50041C8.82099 3.42841 8.66357 3.42841 8.53419 3.50041L4.81653 5.56922C4.68082 5.64474 4.59668 5.78786 4.59668 5.94316V10.0539C4.59668 10.2092 4.68082 10.3523 4.81653 10.4278L8.53419 12.4966C8.66357 12.5686 8.82099 12.5686 8.95037 12.4966L12.668 10.4278C12.8037 10.3523 12.8879 10.2092 12.8879 10.0539V5.94316C12.8879 5.78786 12.8037 5.64474 12.668 5.56922L8.95037 3.50041ZM8.95389 5.25098C8.85977 5.08795 8.62446 5.08795 8.53034 5.25098L6.15686 9.36197C6.06274 9.52499 6.18039 9.72877 6.36864 9.72877H11.1156C11.3038 9.72877 11.4215 9.52499 11.3274 9.36197L8.95389 5.25098Z" fill="white"/>
</g>
</svg>