<svg xmlns="http://www.w3.org/2000/svg" width="742" height="746"><path d="m370.5.688 3.318.006C456.954.956 539.895 29.493 604 83l3.066 2.543c10.517 8.774 20.54 17.985 30.246 27.644l1.994 1.98c4.433 4.448 8.617 9.058 12.694 13.833l1.635 1.901C668.568 148.384 681.274 167.245 693 187l1.358 2.287C735.584 259.395 751.57 347.758 739 428l-.422 2.908C729.836 490.765 705.526 548.82 669 597c-.859 1.154-1.717 2.31-2.574 3.465C648.843 623.958 628.11 645.905 605 664l-4.148 3.305C591.529 674.692 582.079 681.682 572 688l-2.224 1.396C523.316 718.36 471.446 737.416 417 744l-2.09.261c-14.311 1.752-28.502 2.099-42.91 2.052l-3.394-.005c-17.074-.04-33.715-.662-50.606-3.308l-2.908-.422C247.75 732.743 182.127 702.963 131 658l-2.223-1.922A693.532 693.532 0 0 1 123 651l-2.145-1.863c-5.54-4.879-10.814-9.99-16.043-15.2l-2.015-2.001C40.364 569.309.132 476.579-.203 388.09l-.017-3.656c-.01-2.545-.016-5.09-.02-7.636-.01-3.798-.04-7.596-.073-11.394-.38-87.628 34.704-176.533 94.118-240.998a296.371 296.371 0 0 0 5.437-6.16c3.839-4.396 7.88-8.56 12.008-12.683l2.258-2.258c4.836-4.786 9.758-9.227 15.117-13.422 2.231-1.77 4.295-3.628 6.375-5.57 48.422-43.28 114.469-69.171 177.813-79.563l2.775-.458C333.856 1.476 352.038.622 370.5.688Z" fill="#CF0E17"/><path d="m369.625 135.75 2.878-.002c72.938.081 144.93 14.958 199.497 66.252l2.082 1.883C602.999 231.034 618.322 271.884 625 310l.553 2.88c1.835 10.745 1.75 21.458 1.708 32.33-.01 3.256 0 6.51.012 9.767.014 18.588-1.149 36.922-4.586 55.21l-.654 3.567a296.659 296.659 0 0 1-6.455 27.222 356.09 356.09 0 0 0-1.605 5.872c-2.084 7.69-4.743 14.875-7.973 22.152-.595 1.384-1.188 2.768-1.781 4.152C580.837 527.313 541.108 568.722 486 591c-36.125 13.97-73.903 19.226-112.438 19.13-2.56-.005-5.12 0-7.68.007-15.291.008-30.358-.644-45.507-2.887l-3.633-.536C274.995 600.353 233.794 586.398 201 559l-1.773-1.47C188.358 548.485 178.794 539.117 170 528l-2.477-3.066C161.228 517.05 155.905 508.81 151 500l-1.333-2.392c-6.903-12.512-12.736-25.2-17.667-38.608l-1.39-3.707c-6.768-19.081-10.473-39.106-13.168-59.12a233.116 233.116 0 0 0-.982-6.392c-1.938-12.322-1.856-24.647-1.835-37.094v-3.511c.031-16.765.65-32.773 4.375-49.176.368-1.82.734-3.64 1.098-5.46 7.522-35.933 25.77-67.22 50.902-93.54l1.824-1.984C200.034 170.229 240.455 154.318 278 145l2.482-.62c11.613-2.812 23.416-4.202 35.268-5.567l2.23-.258c17.21-1.962 34.328-2.794 51.645-2.805Z" fill="#FEFEFE"/><path d="M366.855 241.684c3.611.003 7.222-.02 10.832-.045C409.606 241.55 440.553 246.48 471 256l2.656.82c12.517 3.899 24.543 8.462 36.344 14.18l2.155 1.038c28.693 14.01 55.447 35.838 66.432 66.768 3.954 11.633 5.794 22.949 5.726 35.257l-.018 3.283c-.395 26.6-8.193 51.729-26.295 71.654l-1.633 1.879c-18.061 19.559-45.544 27.87-71.43 29.289-17.419.116-34.933-2.922-51.375-8.668-5.675-1.977-11.305-3.458-17.187-4.687l-2.24-.47A380.171 380.171 0 0 0 407 465l-2.735-.544c-10.444-1.884-20.874-1.855-31.452-1.831l-2.96.004c-23.633.079-44.717 3.558-67.373 10.469-13.878 4.182-26.94 6.14-41.418 6.152l-2.107.002c-28.286-.044-52.758-9.134-73.642-28.502-18.754-19.917-27.767-47.306-27.625-74.375.005-1.14.01-2.279.017-3.453.437-30.613 12.93-55.177 34.67-76.36C227.815 264.495 278.706 250.45 325 244l3.778-.546c12.67-1.697 25.31-1.793 38.077-1.77Z" fill="#FCCBA0"/><path d="M366.796 112.74c3.768.01 7.535 0 11.304-.013 62.868-.037 130.983 11.24 182.9 49.273l3.152 2.293c7.57 5.613 14.555 11.763 21.356 18.278a596.987 596.987 0 0 0 4.144 3.921c6.861 6.612 12.681 13.874 18.348 21.508l1.215 1.637C622.89 228.27 632.832 249.093 640 271l1.152 3.43c7.77 23.983 9.365 49.174 9.24 74.215-.017 3.786 0 7.57.018 11.357.037 43.778-7.814 89.546-27.41 128.998a515.12 515.12 0 0 0-1.793 3.984C613.067 511.164 602.588 527.59 590 543l-1.547 1.898c-17.261 21-37.78 38.63-61.453 52.102l-1.98 1.135c-47.225 26.754-99.443 35.084-153.02 35.115l-3.633.003c-18.639-.01-36.902-.559-55.367-3.253l-3.247-.47c-11.809-1.77-23.29-4.173-34.753-7.53-1.305-.351-2.611-.7-3.918-1.047-27.126-7.352-53.635-20.04-76.082-36.953l-1.78-1.318c-38.805-28.842-65.124-68.13-82.194-112.994a362.679 362.679 0 0 0-2.518-6.407c-6.31-16.33-10.034-33.98-12.82-51.218l-.446-2.75c-.466-3.1-.865-6.201-1.242-9.313l-.26-2.105c-1.768-14.744-2.113-29.42-2.11-44.259-.005-3.801-.041-7.602-.08-11.404-.095-20.773 1.899-41.247 7.575-61.294l.883-3.188c8.53-29.623 22.616-57.506 42.992-80.75l2.168-2.5c32.602-36.93 76.266-58.975 123.574-70.918 2.02-.52 4.03-1.08 6.04-1.644 8.446-2.31 16.93-3.789 25.593-5.063l3.197-.48c20.99-2.932 42.052-3.727 63.224-3.656ZM313 139l-3.218.356c-56.179 6.492-114.508 29.783-150.952 74.636-22.165 27.979-35.752 59.974-41.372 95.16a245.86 245.86 0 0 1-1 5.772c-2.01 11.854-1.896 23.77-1.896 35.764l-.005 3.474c.014 20.041 1.717 39.171 5.443 58.838.35 2.004.7 4.007 1.047 6.012 1.719 9.566 4.166 18.774 7.282 27.975a304.548 304.548 0 0 1 2.007 6.302c16.816 53.58 52.532 100.512 102.598 126.797 3.984 2.051 8.018 3.992 12.066 5.914l1.843.897c38.156 18.476 81.708 23.345 123.594 23.29l2.64-.001c23.311-.044 45.987-1.908 68.923-6.186l2.271-.412C478.927 597.094 513.861 581.49 541 559l1.782-1.474C553.648 548.48 563.199 539.108 572 528l2.371-2.89C590.141 505.43 602.34 482 610 458c.48-1.434.96-2.868 1.441-4.3 11.357-34.077 15.791-68.11 15.871-103.95l.008-3.383c.005-16.166-.55-31.578-4.32-47.367-.317-1.465-.632-2.93-.945-4.395C614.152 259.26 597.075 228.013 572 202l-1.973-2.129C548.902 177.67 519.614 162.78 491 153l-2.142-.736C432.875 133.287 371.241 132.514 313 139Z" fill="#0D0606"/><path d="M366.855 241.684c3.611.003 7.222-.02 10.832-.045C409.606 241.55 440.553 246.48 471 256l2.656.82c12.517 3.899 24.543 8.462 36.344 14.18l2.155 1.038c28.693 14.01 55.447 35.838 66.432 66.768 3.954 11.633 5.794 22.949 5.726 35.257l-.018 3.283c-.395 26.6-8.193 51.729-26.295 71.654l-1.633 1.879c-18.061 19.559-45.544 27.87-71.43 29.289-17.419.116-34.933-2.922-51.375-8.668-5.675-1.977-11.305-3.458-17.187-4.687l-2.24-.47A380.171 380.171 0 0 0 407 465l-2.735-.544c-10.444-1.884-20.874-1.855-31.452-1.831l-2.96.004c-23.633.079-44.717 3.558-67.373 10.469-13.878 4.182-26.94 6.14-41.418 6.152l-2.107.002c-28.286-.044-52.758-9.134-73.642-28.502-18.754-19.917-27.767-47.306-27.625-74.375.005-1.14.01-2.279.017-3.453.437-30.613 12.93-55.177 34.67-76.36C227.815 264.495 278.706 250.45 325 244l3.778-.546c12.67-1.697 25.31-1.793 38.077-1.77ZM313 262l-3.306.601c-43.14 7.95-94.24 24.843-120.913 62.102-6.054 8.9-9.929 17.931-12.781 28.297l-1.105 3.605c-5.647 23.144.217 51.042 12.417 71.208C200.657 447.423 219.099 457.639 242 463c22.07 3.989 42.973-.652 63.91-7.348 17.269-5.367 35.859-8.75 53.98-8.855l2.48-.022c33.944-.226 33.944-.226 49.63 3.225l3.015.65c10.288 2.26 20.476 4.745 30.485 8.038 26.36 8.45 54.115 7.67 79.422-4.024 5.086-2.75 9.595-6.029 14.078-9.664l2.176-1.68c15.719-12.758 24.49-34.236 26.654-54.065 2.013-26.72-2.015-49.39-19.346-70.368-34-39.507-94.9-55.931-144.785-60.414-29.935-2.212-61.185-2.226-90.699 3.527Z" fill="#0F0808"/><path d="M132 457h2a122.272 122.272 0 0 1 4.125 6.375c3.902 6.24 8.082 12.027 12.875 17.625l1.938 2.273c37.546 42.81 89.403 69.891 145.712 78.36 2.765.432 5.52.913 8.276 1.394l6.449 1.098 2.932.518c16.934 2.795 34.188 2.52 51.3 2.487 3.388-.005 6.777 0 10.166.007 18.97.009 37.342-.59 56.04-3.887l4.738-.817c49.143-8.56 94.899-26.305 132.137-60.343a171.94 171.94 0 0 1 6-5.152c3.862-3.297 7.055-7.055 10.312-10.938l2.277-2.617c6.898-8.042 12.846-16.58 18.723-25.383 1.108 3.323.978 3.766-.23 6.86l-.916 2.346-1.042 2.544-1.08 2.659C597.89 488.807 589.528 504.664 579 519l-1.275 1.742c-37.121 50.122-92.128 76.922-153.002 86.254-17.029 2.419-33.98 3.177-51.161 3.134-2.56-.005-5.12 0-7.68.007-15.291.008-30.358-.644-45.507-2.887l-3.633-.536C274.995 600.353 233.794 586.398 201 559l-1.773-1.47C188.358 548.485 178.794 539.117 170 528l-2.477-3.066C161.228 517.05 155.905 508.81 151 500l-1.333-2.392C132 465.586 132 465.586 132 457Z" fill="#FDE6FD"/><path d="M502.75 364.75c6.662 6.231 12.83 13.815 13.55 23.14.02 1.454.024 2.907.013 4.36l-.015 2.3c-.118 5.62-.784 10.362-3.298 15.45l-1.102 2.29c-5.633 10.866-13.813 18.55-25.273 23.147-11.422 3.395-25.334 3.501-36.086-1.89-9.973-6.076-18.025-13.64-22.539-24.547l-.906-1.977c-4.127-10.203-3-21.779.594-31.96C431.875 365.29 437.83 357.608 447 352c19.228-5.126 40.694.136 55.75 12.75Zm-228.687-14 2.892-.023c9.731.026 15.497 1.898 22.611 8.644 3.863 4.172 6.782 8.612 9.434 13.629.36.682.722 1.364 1.094 2.066 4.26 10.08 3.168 24.256-.778 34.196-5.699 11.854-13.763 20.98-26.316 25.738-5.407 1.836-10.168 2.354-15.813 2.313l-2.41-.018c-12.262-.253-22.18-4.662-31.09-13.17-9.578-10.234-13.68-22.495-13.261-36.547.961-5.99 3.785-9.963 7.574-14.578l1.824-2.395c11.295-13.899 26.763-19.997 44.238-19.855Z" fill="#FDFCFC"/><path d="M391.36 392.61c5.188 4.251 9.923 9.182 11.081 15.98.175 3.836.09 6.508-1.878 9.848-8.567 5.223-17.435 5.03-27.128 4.953-2.43-.016-4.857 0-7.287.02-8.953.01-16.83-.169-24.71-4.974-2.398-4.064-2.306-7.864-1.438-12.437 3.823-8.886 12.196-15.398 21-19 11.19-2.598 20.799-.912 30.36 5.61Z" fill="#CE9C76"/><path d="M280.004 375.203c4.2 2.421 7.127 4.198 8.996 8.797l-2.195.113c-5.667.386-9.954.872-14.805 3.887l1 5c4.356 1.628 8.24 2.341 12.875 2.625l3.492.227L292 396c-.034 7.285-1.873 11.802-7 17-5.566 4.737-11.148 4.72-18.328 4.508-6.997-.968-11.47-4.527-15.735-10.008-3.17-5.714-2.734-12.192-1.937-18.5 1.876-6.345 7.377-10.757 12.836-14.137 5.668-2.26 12.576-1.9 18.168.34Zm190.383-.515c4.76 2.176 7.559 5.112 10.613 9.312l-2.195.113c-5.667.386-9.954.872-14.805 3.887v4c6.458 3.454 12.763 3.684 20 4-.029 6.222-1.158 10.477-5.223 15.27-5.035 4.902-9.735 6.01-16.714 6.355-7.994-.257-12.192-2.763-17.72-8.277-4.196-5.328-3.903-11.217-3.91-17.762.882-5.581 3.778-9.288 8.067-12.836.567-.48 1.134-.96 1.719-1.453 5.978-4.353 13.105-4.644 20.168-2.61Z" fill="#0E0808"/><path d="M466 309c24.752 4.535 42.576 17.973 57 38 2 3 2 3 2 7-3.557-1-5.704-2.564-8.313-5.063-14.827-13.4-37.023-20.906-56.574-23.44-4.188-.668-5.632-2.114-8.113-5.497-.625-3-.625-3 0-6 3.856-5.721 7.664-5.875 14-5Z" fill="#110A09"/><path d="M282.938 310.5c2.497 3.027 2.652 4.694 2.726 8.5-1.056 3.18-2.87 4.237-5.664 6-3.355.836-3.355.836-7.188 1.375-20.907 3.442-40.127 12.281-56.44 25.79C214 354 214 354 212 354c2.388-12.104 15.545-23.884 25-31 8.883-5.777 18.033-10.644 28.5-12.688 1.248-.25 2.496-.502 3.781-.761 9.145-1.355 9.145-1.355 13.656.949Z" fill="#100908"/><path d="M289 351c-3.05.9-5.68 1.084-8.852.992l-2.832-.05a667.6 667.6 0 0 1-5.812-.157c-14.72-.221-27.983 6.02-38.504 16.215-2.883 3.534-5.457 7.218-8 11a324.981 324.981 0 0 1-3 4c1.334-10.561 7.055-20.15 15.25-26.836 16.079-11.908 33.455-12.8 51.75-5.164Z" fill="#1D1716"/><path d="M495.813 352.75c9.741 7.114 16.654 15.669 20.187 27.25l-1 3-1.102-1.941c-8.577-14.758-20.142-24.006-36.762-28.44-5.434-1.073-10.807-.933-16.324-.807l-3.462.042c-2.784.034-5.567.084-8.35.146 11.157-11.157 35.152-6.583 46.813.75Z" fill="#1B1414"/><path d="M122 97c-1.561 3.738-3.874 6.132-6.719 8.984l-2.824 2.832-1.47 1.458a794.136 794.136 0 0 0-4.444 4.456l-2.824 2.817-2.596 2.589C99 122 99 122 97 122c1.561-3.738 3.874-6.132 6.719-8.984l2.824-2.832 1.47-1.458a794.136 794.136 0 0 0 4.444-4.456l2.824-2.817 2.596-2.589C120 97 120 97 122 97Z" fill="#BF474C"/><path d="M260 401c1.675.286 3.344.618 5 1 .625 1.875.625 1.875 1 4l-2 2c-2.625-.375-2.625-.375-5-1a99.984 99.984 0 0 1 0-5l1-1Z" fill="#E5E4E4"/><path d="M452 401c1.675.286 3.344.618 5 1v5a88.406 88.406 0 0 1-5 1c-1-1-1-1-1.125-3.5C451 402 451 402 452 401Z" fill="#EDEDED"/><path d="M512 372c1.801 2.702 3.002 4.93 4 8l-1 3c-4.062-6.4-4.062-6.4-3.75-9.438L512 372Z" fill="#3C332E"/></svg>
